<svg xmlns="http://www.w3.org/2000/svg" xml:space="preserve" width="984.844" height="404.223" version="1.1" style="clip-rule:evenodd;fill-rule:evenodd;image-rendering:optimizeQuality;shape-rendering:geometricPrecision;text-rendering:geometricPrecision" viewBox="0 0 14161.728 5814" id="svg2">
    <defs id="defs4">
        <style type="text/css" id="style6">
        .fil0{fill:#000}
</style>
    </defs>
    <g id="Layer_x0020_1" transform="translate(-1923.7)">
        <path class="fil0" d="M9458.391 1929.986v277.986c-2.31 82.395-19.25 156.32-49.283 220.233-24.641 54.673-63.143 107.036-118.586 148.618-54.673 43.893-129.368 68.534-227.933 68.534-99.336 0-176.34-24.641-231.014-68.534-54.673-41.582-90.865-93.175-115.506-148.618-30.032-63.144-46.973-137.068-49.283-220.232V1017.484c3.08-80.085 19.251-154.01 49.283-217.153 24.641-54.673 60.063-110.116 115.506-150.928 54.674-41.583 131.678-68.534 231.014-68.534 99.335 0 173.26 27.722 227.933 68.534 54.673 41.582 93.175 96.255 118.586 150.928 30.032 63.144 46.973 137.068 49.283 217.153v277.985h-277.986v-277.985c0-54.674-13.86-93.176-43.892-126.287-13.86-13.861-38.502-22.332-68.534-22.332-52.363 0-77.004 38.503-90.865 73.924-8.47 22.332-10.78 46.973-13.86 74.695v1190.487c3.08 57.754 19.25 96.256 46.972 126.288 13.86 13.86 33.112 22.33 57.753 22.33 63.144 0 87.785-33.111 101.646-73.923 8.47-19.251 10.78-43.893 10.78-73.925v-277.986h277.986zm865.531 327.27c-8.47 145.537-52.363 247.183-148.619 327.268-49.284 41.582-118.588 60.063-208.683 60.063-178.65 0-266.435-99.335-311.097-197.9-24.642-57.754-41.583-123.978-43.893-197.902V1492.6c8.47-145.538 52.363-252.574 148.619-334.969 46.972-41.582 115.506-60.833 206.371-60.833 178.65 0 269.516 99.336 313.41 195.591 24.641 57.753 41.582 120.897 43.892 192.511zm-261.046-764.654c3.08-57.754-8.471-98.566-35.422-131.678-13.861-13.86-35.422-22.331-60.064-22.331-52.363 0-74.694 35.422-85.475 77.004-8.47 22.331-10.78 46.973-8.47 77.004v756.184c-2.31 57.753 10.78 99.335 35.422 129.367 13.861 13.86 33.112 22.331 57.753 22.331 52.363 0 77.005-33.112 87.785-73.924 8.471-22.331 10.781-46.973 8.471-77.004v-756.183zm1155.838 1130.424h-277.985v-99.336c-46.973 43.893-87.786 77.005-140.149 101.646-27.721 13.861-55.443 19.251-80.084 19.251-77.005 0-129.368-43.892-162.479-101.646-35.423-54.673-52.363-129.367-52.363-192.51v-959.475c0-63.144 16.171-137.068 52.363-194.821 33.111-54.674 85.474-99.336 162.479-99.336 52.363 0 107.037 30.032 148.618 60.833 24.642 19.251 46.974 38.503 71.615 60.064V601.66h277.985v2020.595Zm-277.985-1174.317c0-43.893-41.584-90.865-82.395-90.865-41.583 0-73.925 38.502-73.925 90.865v843.968c0 52.363 33.112 90.865 73.925 90.865 41.583 0 82.395-38.502 82.395-90.865zm1195.877 635.286v173.26c-8.469 145.538-52.362 247.184-150.928 327.269-49.283 41.582-118.586 60.063-208.682 60.063-178.649 0-269.515-99.335-313.408-197.9-24.64-57.754-41.581-123.978-43.892-197.902V1492.6c8.47-145.538 54.674-252.574 154.009-334.969 46.972-41.582 115.506-60.833 206.371-60.833 178.651 0 269.516 99.336 313.408 195.591 24.642 57.753 41.583 120.897 43.894 192.511v437.385h-458.947v327.269c3.08 57.753 19.251 99.335 43.893 129.367 13.86 13.86 33.112 22.331 57.752 22.331 52.363 0 77.005-33.112 87.786-73.924 8.471-22.331 10.78-46.973 10.78-77.004v-164.79h258.736zm-458.945-379.631h200.981V1492.6c0-57.753-10.78-98.565-38.501-131.677-13.862-13.86-35.423-22.331-60.065-22.331-52.363 0-74.694 35.422-87.785 77.004-8.469 22.331-10.78 46.973-13.86 77.004v211.763zm1199.728-299.548c-24.641-8.47-52.363-10.78-77.004-10.78-43.893 0-96.256 5.39-140.148 46.973-52.363 43.892-60.834 90.865-60.834 137.067v1044.95h-277.985V1119.13h277.985V1287c3.081-19.251 22.332-66.224 66.224-110.116 43.893-41.583 110.116-80.085 211.762-80.085zm120.897 1218.21V602.431h234.094c274.905 0 423.524 54.673 502.838 208.682 77.004 154.009 87.785 407.353 87.785 803.155 0 395.803-10.781 646.067-87.785 800.076-79.314 154.009-227.933 208.682-502.838 208.682zm297.237-297.237c101.645 0 159.399-10.78 189.431-110.116 13.86-46.973 24.642-118.587 27.722-214.072 3.08-96.256 3.08-225.623 3.08-390.413 0-164.79 0-294.157-3.08-390.412-2.311-93.175-13.862-164.79-27.722-214.072-30.032-96.255-87.786-107.036-189.431-107.036v1426.891Zm1410.72-68.534c-8.469 145.538-52.363 247.184-148.618 327.269-49.282 41.582-118.587 60.063-208.682 60.063-178.65 0-266.435-99.335-311.097-197.9-24.642-57.754-41.583-123.978-43.893-197.902V1492.6c8.471-145.538 52.363-252.574 148.619-334.969 46.972-41.582 115.506-60.833 206.371-60.833 178.651 0 269.515 99.336 313.408 195.591 24.641 57.753 41.582 120.897 43.892 192.511zm-261.045-764.654c3.08-57.753-8.469-98.565-35.422-131.677-13.86-13.86-35.421-22.331-60.063-22.331-52.363 0-74.694 35.422-85.475 77.004-8.471 22.331-10.78 46.973-8.471 77.004v756.184c-2.309 57.753 10.782 99.335 35.423 129.367 13.86 13.86 33.111 22.331 57.753 22.331 52.363 0 77.004-33.112 87.786-73.924 8.469-22.331 10.78-46.973 8.469-77.004v-756.183zm445.856-890.94h277.986v277.986h-277.986zm277.986 516.7v1542.397c0 77.004 0 197.901-38.502 297.237-38.503 101.646-123.978 181.73-280.297 181.73-43.892 0-73.923-3.08-93.174-8.47-10.78-3.08-19.252-5.39-27.723-8.47V2867.13c8.471 2.31 16.171 2.31 24.642 5.39 19.252 3.08 35.423 5.39 52.363 5.39 46.973 0 68.534-38.502 79.315-85.474 3.08-22.332 5.39-46.973 5.39-71.614V1118.36Zm906.341 1138.124c-8.47 145.538-52.363 247.184-148.618 327.269-49.282 41.582-118.586 60.063-208.682 60.063-178.65 0-266.436-99.335-311.097-197.901-24.642-57.753-41.583-123.977-43.894-197.901v-756.183c8.472-145.539 52.363-252.575 148.62-334.97 46.972-41.582 115.506-60.833 206.371-60.833 178.651 0 269.516 99.336 313.408 195.591 24.642 57.753 41.583 120.897 43.892 192.511zm-261.044-764.654c3.081-57.753-8.471-98.565-35.422-131.677-13.862-13.86-35.422-22.331-60.064-22.331-52.363 0-74.695 35.422-85.475 77.004-8.469 22.331-10.78 46.973-8.469 77.004v756.184c-2.311 57.753 10.78 99.335 35.42 129.367 13.862 13.86 33.114 22.331 57.754 22.331 52.363 0 77.005-33.112 87.785-73.924 8.471-22.331 10.781-46.973 8.471-77.004V1492.6z" id="path10" style="fill:#000;stroke-width:.77004391" />
        <g id="_836803312">
            <circle cx="4818" cy="2907" r="2850" id="circle13" style="fill:#fefefe" />
            <path class="fil0" d="M4830 0c1605 0 2907 1301 2907 2907 0 1605-1301 2907-2907 2907-1605 0-2907-1301-2907-2907C1923 1302 3224 0 4830 0Zm-29 150c-14 0-27 0-41 1-1503 22-2716 1248-2716 2756 0 1510 1216 2737 2721 2756-744-19-1343-629-1343-1378 0-761 618-1378 1378-1378 761 0 1378-618 1378-1378 0-761-618-1378-1378-1378Z" id="path15" style="fill:#000" />
            <path class="fil0" d="M4366 1800V773c0-45 16-84 49-116 33-33 72-49 117-49h536c44 0 83 16 115 49s49 72 49 116v1027c0 46-16 85-49 117-32 32-71 49-117 49h-533c-46 0-86-16-118-49-32-32-48-71-48-117zm695-6V781h-523v1013z" id="path17" style="fill:#000" />
            <path d="M4561 4906h264V3893h-260c-24 0-44-8-61-25s-25-37-25-61 8-44 25-61 37-25 61-25h431v1185h172v-358c0-23 8-43 25-60s37-26 61-26 44 8 61 25 25 37 25 61v444c0 24-8 44-25 61s-37 25-61 25h-693c-24 0-44-9-61-26s-25-38-25-62c0-23 8-43 25-59s37-25 61-25z" id="path19" style="fill:#fff" />
        </g>
        <g aria-label="Bratislava" style="font-style:normal;font-weight:400;font-size:2748.51025391px;line-height:1.25;font-family:sans-serif;letter-spacing:0;word-spacing:0;fill:#000;fill-opacity:1;stroke:none;stroke-width:51.5345726" id="text32">
            <path d="M8687.39 5312.519V3292.363h261.108c175.905 0 313.33 32.983 404.031 118.187 90.7 85.203 137.426 217.132 137.426 417.773 0 96.198-8.246 167.66-38.48 233.623-30.233 65.965-76.958 120.935-145.67 184.15 74.21 41.228 129.18 118.187 173.156 247.367 21.988 63.215 32.982 145.67 32.982 247.365 0 151.168-27.485 285.845-96.198 390.289-68.713 104.443-186.899 173.156-362.804 181.402zm296.839-1187.357c24.736 0 82.455 2.749 131.928-30.233 49.473-32.983 87.953-98.947 87.953-239.12 0-140.175-38.48-206.14-87.953-239.121-49.473-32.982-107.192-30.234-131.928-30.234zm0 893.266c24.736 0 82.455 5.497 131.928-30.234 49.473-35.73 87.953-115.437 87.953-280.348 0-164.91-38.48-244.617-87.953-280.348-49.473-35.73-107.192-30.233-131.928-30.233z" style="font-style:normal;font-variant:normal;font-weight:400;font-stretch:normal;font-size:2748.51025391px;font-family:'League Gothic';-inkscape-font-specification:'League Gothic';stroke-width:51.5345726" id="path34" />
            <path d="M10241.071 4094.928c-24.737-8.245-52.222-10.993-76.958-10.993-43.977 0-96.198 5.496-140.174 46.724-52.222 43.976-60.468 90.701-60.468 137.426v1044.434h-277.6V3809.083h277.6v167.66c2.749-19.24 21.989-65.965 65.965-109.94 43.976-41.228 109.94-79.708 211.635-79.708z" style="font-style:normal;font-variant:normal;font-weight:400;font-stretch:normal;font-size:2748.51025391px;font-family:'League Gothic';-inkscape-font-specification:'League Gothic';stroke-width:51.5345726" id="path36" />
            <path d="M10761.312 4166.39c0-24.737 0-63.216-8.245-90.701-10.994-27.485-32.982-46.725-68.713-46.725-46.725 0-65.964 35.73-74.21 79.707-2.748 21.988-5.497 46.725-5.497 71.461v71.462h-277.599v-63.216c0-109.94 41.227-208.887 107.192-283.097 65.964-74.21 159.413-118.186 266.605-118.186 90.701 0 173.156 35.731 236.372 96.198 63.216 60.467 101.695 145.671 101.695 244.618v923.5c0 134.676 8.245 195.143 19.239 261.108h-272.102c-24.737-30.234-24.737-101.695-24.737-120.935h-19.239c-13.743 24.737-38.479 60.467-76.959 90.7-38.479 30.235-90.7 52.223-145.671 52.223-35.73 0-93.449-13.743-137.425-68.713-46.725-52.222-85.204-145.671-85.204-302.336 0-167.66 49.473-288.594 115.438-371.05 65.964-82.454 148.419-134.676 217.132-170.407 68.713-35.73 120.934-60.467 131.928-90.7zm0 420.522c-134.677 57.719-192.395 192.396-192.395 335.318 0 19.24 2.748 52.222 13.742 82.455 10.994 32.982 30.234 57.72 63.216 57.72 63.216 0 115.437-38.48 115.437-90.702z" style="font-style:normal;font-variant:normal;font-weight:400;font-stretch:normal;font-size:2748.51025391px;font-family:'League Gothic';-inkscape-font-specification:'League Gothic';stroke-width:51.5345726" id="path38" />
            <path d="M11540.386 3438.035v371.048h189.647v250.115h-189.647v747.595c0 46.724 0 107.192 10.994 156.665s32.982 90.7 76.958 90.7c21.989 0 49.474-2.748 68.713-5.496 10.994-2.749 21.988-2.749 32.982-5.498v272.103c-13.742 2.749-27.485 8.246-41.227 10.994-27.485 5.497-63.216 8.246-107.192 8.246-162.162 0-239.121-82.456-277.6-186.9-38.479-104.442-41.227-230.874-41.227-318.826v-769.583h-140.174v-250.115h140.174v-371.048z" style="font-style:normal;font-variant:normal;font-weight:400;font-stretch:normal;font-size:2748.51025391px;font-family:'League Gothic';-inkscape-font-specification:'League Gothic';stroke-width:51.5345726" id="path40" />
            <path d="M11876.091 3292.363h277.6v277.6h-277.6zm0 2020.156V3809.083h277.6V5312.52z" style="font-style:normal;font-variant:normal;font-weight:400;font-stretch:normal;font-size:2748.51025391px;font-family:'League Gothic';-inkscape-font-specification:'League Gothic';stroke-width:51.5345726" id="path42" />
            <path d="M12779.75 4193.875c0-35.73 0-79.707-10.994-115.438-13.743-32.982-35.731-60.467-79.707-60.467-35.731 0-57.719 27.485-68.713 60.468-13.743 32.982-16.491 79.706-16.491 115.437 0 46.725 24.737 96.198 60.467 140.174 32.982 43.976 76.958 87.952 120.935 129.18 57.718 57.719 126.431 123.683 173.156 197.893 46.724 76.958 82.455 162.162 82.455 261.108 0 96.198-21.988 197.893-76.958 274.851-57.719 79.707-145.671 137.426-277.6 137.426-167.659 0-266.605-76.959-321.575-170.408-54.971-93.45-65.965-208.887-65.965-288.594h258.36c0 41.228 2.749 98.947 21.988 142.923 19.24 46.725 49.474 85.204 107.192 85.204 79.707 0 96.198-93.45 96.198-181.402 0-90.7-87.952-181.402-173.156-266.605-65.964-63.216-129.18-120.935-178.653-195.145-49.473-74.21-85.204-156.665-85.204-266.605 0-87.952 16.491-189.647 68.713-269.354 52.221-76.958 137.425-134.677 269.354-137.426 162.162-2.748 252.863 57.72 299.587 137.426 46.725 79.707 54.971 184.15 54.971 269.354z" style="font-style:normal;font-variant:normal;font-weight:400;font-stretch:normal;font-size:2748.51025391px;font-family:'League Gothic';-inkscape-font-specification:'League Gothic';stroke-width:51.5345726" id="path44" />
            <path d="M13207.401 5312.519V3292.363H13485V5312.52z" style="font-style:normal;font-variant:normal;font-weight:400;font-stretch:normal;font-size:2748.51025391px;font-family:'League Gothic';-inkscape-font-specification:'League Gothic';stroke-width:51.5345726" id="path46" />
            <path d="M14127.164 4166.39c0-24.737 0-63.216-8.246-90.701-10.994-27.485-32.982-46.725-68.713-46.725-46.724 0-65.964 35.73-74.209 79.707-2.749 21.988-5.497 46.725-5.497 71.461v71.462h-277.6v-63.216c0-109.94 41.228-208.887 107.192-283.097 65.964-74.21 159.414-118.186 266.605-118.186 90.701 0 173.157 35.731 236.372 96.198 63.216 60.467 101.695 145.671 101.695 244.618v923.5c0 134.676 8.246 195.143 19.24 261.108H14151.9c-24.736-30.234-24.736-101.695-24.736-120.935h-19.24c-13.742 24.737-38.479 60.467-76.958 90.7-38.479 30.235-90.701 52.223-145.671 52.223-35.731 0-93.45-13.743-137.426-68.713-46.724-52.222-85.204-145.671-85.204-302.336 0-167.66 49.474-288.594 115.438-371.05 65.964-82.454 148.419-134.676 217.132-170.407 68.713-35.73 120.935-60.467 131.929-90.7zm0 420.522c-134.677 57.719-192.396 192.396-192.396 335.318 0 19.24 2.748 52.222 13.742 82.455 10.995 32.982 30.234 57.72 63.216 57.72 63.216 0 115.438-38.48 115.438-90.702z" style="font-style:normal;font-variant:normal;font-weight:400;font-stretch:normal;font-size:2748.51025391px;font-family:'League Gothic';-inkscape-font-specification:'League Gothic';stroke-width:51.5345726" id="path48" />
            <path d="m14738.321 5312.519-244.618-1503.436h269.354l90.701 871.278 10.994 96.198h21.988l10.994-96.198 90.701-871.278h269.354l-244.617 1503.436z" style="font-style:normal;font-variant:normal;font-weight:400;font-stretch:normal;font-size:2748.51025391px;font-family:'League Gothic';-inkscape-font-specification:'League Gothic';stroke-width:51.5345726" id="path50" />
            <path d="M15791.301 4166.39c0-24.737 0-63.216-8.246-90.701-10.994-27.485-32.982-46.725-68.712-46.725-46.725 0-65.965 35.73-74.21 79.707-2.749 21.988-5.497 46.725-5.497 71.461v71.462h-277.6v-63.216c0-109.94 41.228-208.887 107.192-283.097 65.964-74.21 159.414-118.186 266.606-118.186 90.7 0 173.156 35.731 236.372 96.198 63.215 60.467 101.694 145.671 101.694 244.618v923.5c0 134.676 8.246 195.143 19.24 261.108h-272.103c-24.736-30.234-24.736-101.695-24.736-120.935h-19.24c-13.742 24.737-38.479 60.467-76.958 90.7-38.479 30.235-90.701 52.223-145.671 52.223-35.731 0-93.449-13.743-137.426-68.713-46.724-52.222-85.203-145.671-85.203-302.336 0-167.66 49.473-288.594 115.437-371.05 65.964-82.454 148.42-134.676 217.132-170.407 68.713-35.73 120.935-60.467 131.929-90.7zm0 420.522c-134.677 57.719-192.396 192.396-192.396 335.318 0 19.24 2.749 52.222 13.743 82.455 10.994 32.982 30.233 57.72 63.215 57.72 63.216 0 115.438-38.48 115.438-90.702z" style="font-style:normal;font-variant:normal;font-weight:400;font-stretch:normal;font-size:2748.51025391px;font-family:'League Gothic';-inkscape-font-specification:'League Gothic';stroke-width:51.5345726" id="path52" />
        </g>
    </g>
</svg>
